<svg width="295" height="59" viewBox="0 0 295 59" fill="none" xmlns="http://www.w3.org/2000/svg">
<g clip-path="url(#clip0_15_1138)">
<path d="M0 42.8865C5.30713 42.6389 5.78749 41.5659 5.78749 36.5956V11.5618C5.78749 6.52668 5.78749 5.58334 0.353037 5.32982V4.38647H15.007C18.8962 4.38647 28.4687 4.89352 28.4687 15.3351C28.4687 24.5209 19.88 28.306 14.0752 27.6634L9.13845 26.2838V36.7254C9.13845 41.6307 9.57251 42.5092 15.8693 42.8865V43.7709H0V42.8865ZM9.13845 24.8982C10.8026 25.5889 12.592 25.9105 14.3877 25.8416C19.88 25.8416 24.3885 22.9467 24.3885 15.6476C24.3885 8.7907 20.4993 5.62461 12.9061 5.62461C11.8551 5.57597 10.8019 5.61738 9.75771 5.74842C9.32365 5.81327 9.13845 6.00194 9.13845 7.32262V24.8982Z" fill="#202A4C"/>
<path d="M34.7075 42.8865C40.495 42.574 40.9407 41.5069 40.9407 36.6605V11.998C40.9407 6.59153 40.4487 5.51259 35.321 5.27086V4.38647H62.1865C62.1865 6.59153 62.4933 10.2823 62.7653 14.0144L61.712 14.2031C60.4156 7.78839 59.2465 5.89582 51.7748 5.89582H45.9873C44.3205 5.89582 44.2511 6.02553 44.2511 7.66458V22.4043H51.4739C56.3527 22.4043 57.5276 21.7734 58.4536 17.5579H59.5011V29.2612H58.4536C57.4639 24.4148 56.1675 24.1671 51.4739 24.1671H44.2164V36.4305C44.2164 42.3264 46.7455 42.3264 51.8732 42.3264C55.6409 42.3264 59.3449 42.2674 61.3184 39.9386C62.8421 38.0986 64.0193 35.9879 64.7909 33.7125H65.8384C65.2597 36.0355 64.1022 41.6366 63.616 43.7768H34.7075V42.8865Z" fill="#202A4C"/>
<path d="M96.2112 42.8866C99.7358 42.3855 101.032 42.0081 101.032 40.4988C101.032 38.8656 99.1802 33.9544 96.8941 28.1705H82.6279C82.0087 29.3497 78.9239 37.8574 78.9239 39.809C78.9239 41.9433 80.5907 42.3206 84.0517 42.8866V43.771H70.0286V42.8866C74.3518 42.0081 75.1563 41.4421 77.4423 35.7821L90.8404 3.76162L91.5812 3.44324L95.7192 15.0817C98.5609 22.9468 101.339 30.8119 103.689 36.8493C105.541 41.507 106.004 42.1968 110.356 42.8866V43.771H96.2112V42.8866ZM90.2211 9.28016C87.7557 14.8753 85.3481 20.8538 83.3687 26.1365H96.3385L90.3484 9.28016H90.2211Z" fill="#202A4C"/>
<path d="M205.89 26.4017C204.235 38.783 193.354 46.0585 181.727 44.449C170.534 42.8983 162.6 33.2468 164.139 21.6909C165.54 11.2198 174.892 1.85128 188.539 3.74385C198.754 5.15886 207.511 14.3093 205.89 26.4017ZM168.665 20.5058C167.039 32.6572 173.486 41.8076 183.4 43.1813C191.659 44.3251 199.894 39.5613 201.376 28.4417C203.268 14.2916 196.416 6.36162 186.566 4.99378C178.417 3.92662 170.274 8.44876 168.665 20.4822V20.5058Z" fill="#202A4C"/>
<path d="M251.953 32.3212C251.09 35.6523 249.638 40.8112 248.741 42.9337C246.767 43.2462 240.962 44.7025 236.332 44.7025C220.127 44.7025 213.234 34.1312 213.298 24.6565C213.298 12.0747 223.669 3.4314 237.606 3.4314C243.659 3.4314 247.548 4.81693 249.279 5.20016C249.777 8.34855 250.083 11.3672 250.436 14.9519L249.389 15.1406C247.653 7.84151 243.457 5.01149 235.429 5.01149C223.2 5.01149 217.708 13.2657 217.708 23.0647C217.708 35.2691 224.873 43.199 235.8 43.199C244.383 43.199 247.901 38.4824 250.847 31.9969L251.953 32.3212Z" fill="#202A4C"/>
<path d="M257.451 42.8865C262.578 42.6389 263.07 41.442 263.07 35.9707V12.1278C263.07 6.7802 262.578 5.58334 257.022 5.27086V4.38647H272.273V5.27086C266.902 5.58334 266.41 6.7802 266.41 12.1278V23.0115C267.939 22.6363 269.37 21.9284 270.606 20.9362C275.236 17.098 283.02 8.55486 283.02 6.90401C283.02 6.02553 282.03 5.83686 278.818 5.27086V4.38647H293.947V5.27086C289.623 5.89582 287.401 7.15753 284.316 9.9227C282.401 11.5617 276.474 17.0331 271.659 21.9385C276.411 27.3509 284.745 36.1593 286.909 38.1109C290.74 41.6484 291.788 42.5092 295.012 42.8865V43.7709H287.343C281.104 37.2854 276.596 32.7633 270.421 25.7177C269.373 24.6447 268.505 24.0787 267.394 24.0787C267.063 24.0908 266.734 24.1323 266.41 24.2025V35.9943C266.468 41.4656 266.902 42.6625 272.521 42.9101V43.7945H257.474L257.451 42.8865Z" fill="#202A4C"/>
<path d="M140.439 34.5675L120.883 6.41468L118.551 3.05993L116.768 0.477539L114.615 2.02815L115.125 2.77693V2.78283L118.088 7.05144L120.472 10.4828L139.785 38.2878L141.938 36.7313L140.439 34.5675Z" fill="#202A4C"/>
<path d="M150.631 23.3595C150.638 20.6623 149.991 18.0053 148.747 15.624C147.504 13.2428 145.703 11.2111 143.504 9.70924C141.305 8.20736 138.776 7.28175 136.141 7.01456C133.506 6.74737 130.848 7.14686 128.401 8.17759L146.528 34.2904C149.174 31.2879 150.635 27.3943 150.631 23.3595Z" fill="#205EFF"/>
<path d="M153.832 35.9176L153.56 36.348L153.832 35.9176Z" fill="#202A4C"/>
<path d="M152.286 38.0991L152.147 38.276L152.286 38.0991Z" fill="#202A4C"/>
<path d="M153.05 37.085L152.882 37.3208L153.05 37.085Z" fill="#202A4C"/>
<path d="M154.653 34.5027C154.503 34.7857 154.347 35.0687 154.185 35.3517C154.347 35.0687 154.503 34.7857 154.653 34.5027Z" fill="#202A4C"/>
<path d="M148.096 36.7196C148.49 36.3069 148.86 35.8824 149.207 35.4402C148.854 35.8824 148.478 36.3069 148.096 36.7196Z" fill="#202A4C"/>
<path d="M151.505 39.0071L151.354 39.1781L151.505 39.0071Z" fill="#202A4C"/>
<path d="M150.695 33.2822C150.822 33.0699 150.944 32.8577 151.059 32.6395C150.944 32.8577 150.822 33.0699 150.695 33.2822Z" fill="#202A4C"/>
<path d="M149.462 35.1099C149.728 34.7562 149.983 34.4024 150.22 34.0369C149.983 34.4024 149.728 34.7621 149.462 35.1099Z" fill="#202A4C"/>
<path d="M150.689 39.8975L150.504 40.0861L150.689 39.8975Z" fill="#202A4C"/>
<path d="M148.098 36.7195L148.009 36.8079L148.098 36.7195Z" fill="#00CDC0"/>
<path d="M151.059 32.6395C151.279 32.2327 151.488 31.8259 151.679 31.4014C151.493 31.82 151.279 32.2327 151.059 32.6395Z" fill="#00CDC0"/>
<path d="M150.214 34.0369C150.382 33.7893 150.538 33.5358 150.689 33.2822C150.544 33.5358 150.388 33.7893 150.214 34.0369Z" fill="#00CDC0"/>
<path d="M149.207 35.4696C149.294 35.3634 149.381 35.2514 149.462 35.1394C149.381 35.2219 149.294 35.3281 149.207 35.4696Z" fill="#00CDC0"/>
<path d="M152.147 38.276C151.939 38.5295 151.725 38.7771 151.505 39.0248C151.725 38.7771 151.951 38.5295 152.147 38.276Z" fill="#00CDC0"/>
<path d="M153.56 36.3479C153.398 36.5955 153.224 36.8432 153.05 37.0849C153.224 36.8432 153.398 36.5955 153.56 36.3479Z" fill="#00CDC0"/>
<path d="M152.882 37.3209C152.691 37.5862 152.489 37.8456 152.304 38.0992C152.489 37.8279 152.691 37.5862 152.882 37.3209Z" fill="#00CDC0"/>
<path d="M154.753 34.3257C154.753 34.3846 154.688 34.4436 154.653 34.5026C154.688 34.4436 154.723 34.3846 154.753 34.3257Z" fill="#00CDC0"/>
<path d="M151.372 39.1958C151.152 39.4316 150.932 39.6675 150.706 39.8974C150.915 39.6675 151.14 39.4316 151.372 39.1958Z" fill="#00CDC0"/>
<path d="M154.185 35.3517C154.069 35.5404 153.953 35.729 153.832 35.9413C153.953 35.729 154.069 35.5404 154.185 35.3517Z" fill="#00CDC0"/>
<path d="M150.214 40.3868C150.319 40.2924 150.411 40.1863 150.515 40.0861C150.276 40.3219 150.033 40.5518 149.786 40.7759C149.919 40.6462 150.064 40.5224 150.214 40.3868Z" fill="#00CDC0"/>
<path d="M149.711 40.8349L149.774 40.7759C150.021 40.5519 150.264 40.3219 150.504 40.0861L150.689 39.8974C150.915 39.6675 151.135 39.4316 151.354 39.1958L151.505 39.0248C151.725 38.7772 151.939 38.5296 152.147 38.2761L152.286 38.0992C152.489 37.8456 152.691 37.5862 152.865 37.3209L153.033 37.0851C153.206 36.8433 153.38 36.5957 153.542 36.3481L153.814 35.9177C153.936 35.729 154.051 35.5404 154.167 35.3281C154.329 35.0451 154.486 34.7621 154.636 34.4791C154.671 34.4202 154.705 34.3612 154.734 34.3022C154.931 33.9308 155.111 33.5476 155.313 33.1702C155.435 32.9108 155.545 32.6455 155.649 32.3802C155.695 32.274 155.741 32.1797 155.782 32.0736C157.523 27.6915 157.917 22.8742 156.912 18.259C155.906 13.6439 153.549 9.44843 150.152 6.22795C146.755 3.00747 142.478 0.913727 137.887 0.223806C133.296 -0.466116 128.608 0.280309 124.443 2.36429L126.804 5.76031C130.313 4.15643 134.22 3.6821 138.001 4.40074C141.782 5.11937 145.257 6.99672 147.963 9.78181C150.669 12.5669 152.475 16.127 153.141 19.9862C153.807 23.8454 153.301 27.8197 151.69 31.3779C151.499 31.8024 151.291 32.2092 151.071 32.616C150.955 32.8342 150.834 33.0464 150.706 33.2587C150.579 33.4709 150.4 33.7657 150.232 34.0133C149.994 34.3789 149.74 34.7326 149.474 35.0864C149.393 35.1984 149.306 35.3104 149.219 35.4166C148.872 35.8587 148.501 36.2832 148.108 36.6959L148.021 36.7844C147.813 37.0025 147.598 37.2207 147.373 37.427L134.588 19.0201L132.435 20.5707L145.335 39.1486L147.65 42.5034L159.104 59.0118L161.263 57.4553L149.711 40.8349Z" fill="#202A4C"/>
<path d="M136.255 46.6718H136.579C137.356 46.6021 138.129 46.4899 138.894 46.3357L139.114 46.2944L139.849 46.1293L140.08 46.0704C140.52 45.9584 140.96 45.8286 141.394 45.693L141.649 45.6105L142.228 45.3982L142.656 45.2391L143.194 45.0209L143.738 44.7851L144.109 44.62C144.913 44.2442 145.696 43.821 146.452 43.3524L144.137 39.9858C143.369 40.4492 142.568 40.8551 141.741 41.2004C139.355 42.206 136.792 42.7053 134.21 42.6678C131.628 42.6303 129.08 42.0568 126.723 40.9822L126.543 40.8997C126.167 40.7228 125.791 40.5283 125.421 40.3101L125.16 40.1568C124.882 39.9976 124.61 39.8325 124.338 39.6557L123.991 39.4257C123.684 39.2135 123.378 38.9953 123.083 38.7654L122.706 38.4647C122.463 38.2642 122.22 38.0579 121.983 37.8397C121.856 37.7336 121.74 37.6216 121.618 37.5096C121.375 37.2737 121.132 37.032 120.895 36.7844C120.779 36.6547 120.652 36.5308 120.536 36.4011L120.443 36.295C120.27 36.1005 120.102 35.9 119.94 35.7054L119.853 35.5993C119.691 35.3988 119.535 35.1925 119.379 35.0097L119.292 34.8859C119.147 34.6855 119.002 34.4791 118.863 34.2963L118.754 34.1253C118.626 33.9367 118.51 33.748 118.389 33.5358L118.238 33.2763L117.966 32.7929L117.758 32.4037L117.584 32.05C117.492 31.8731 117.405 31.6903 117.324 31.5076C117.301 31.4451 117.273 31.3841 117.243 31.3248C116.215 28.9665 115.66 26.4228 115.611 23.8429C115.611 23.7073 115.611 23.5776 115.611 23.442C115.611 18.6797 117.35 14.0877 120.49 10.5595L118.111 7.13403C114.034 11.3849 111.706 17.0633 111.606 23.0057C111.606 23.0824 111.606 23.1531 111.606 23.2298C111.606 23.3064 111.606 23.3713 111.606 23.442C111.606 23.5128 111.606 23.6484 111.606 23.7486C111.606 23.9667 111.606 24.179 111.606 24.3913C111.606 24.6035 111.606 24.745 111.606 24.916C111.606 25.087 111.635 25.3228 111.652 25.5056L111.704 26.0539C111.704 26.2426 111.751 26.4371 111.78 26.6435C111.809 26.8498 111.832 27.0208 111.861 27.2331C111.89 27.4453 111.924 27.6045 111.959 27.7873C111.994 27.97 112.023 28.1646 112.063 28.3474C112.104 28.5302 112.15 28.7306 112.19 28.937C112.231 29.1433 112.272 29.2848 112.318 29.4558C112.364 29.6268 112.434 29.8744 112.491 30.0808C112.549 30.2871 112.578 30.3815 112.625 30.5289C112.694 30.7706 112.781 31.0064 112.862 31.2481C112.902 31.3602 112.937 31.4663 112.972 31.5783C113.076 31.8613 113.186 32.1679 113.302 32.4214C113.302 32.4804 113.348 32.5452 113.377 32.6042C113.51 32.9285 113.649 33.2469 113.799 33.5652V33.6183C114.298 34.5888 114.863 35.5226 115.489 36.4129C115.675 36.6959 115.871 37.0025 116.068 37.256L116.138 37.3504C116.317 37.598 116.508 37.8397 116.716 38.0815L116.861 38.2584C117.035 38.4765 117.22 38.6887 117.405 38.901L117.608 39.1309L117.793 39.3432L118.291 39.862C120.109 41.7179 122.222 43.2468 124.541 44.3842L124.634 44.4313C124.9 44.561 125.172 44.6848 125.45 44.8087L125.751 44.9384L126.37 45.186L126.763 45.3334L127.29 45.5162C127.632 45.6282 127.979 45.7402 128.332 45.8404L128.581 45.9112L129.24 46.0763L129.53 46.1411L130.213 46.2885L130.444 46.3298C131.197 46.4672 131.956 46.5656 132.719 46.6246H132.997L133.674 46.6541H133.986H134.501C134.779 46.6541 135.045 46.6541 135.317 46.6541H135.555L136.255 46.6718Z" fill="#00CDC0"/>
</g>
<defs>
<clipPath id="clip0_15_1138">
<rect width="295" height="59" fill="white"/>
</clipPath>
</defs>
</svg>
