<svg width="100" height="100" viewBox="0 0 100 100" fill="none" xmlns="http://www.w3.org/2000/svg">
<rect width="100" height="100" rx="20" fill="#EEF1F8"/>
<path opacity="0.4" d="M58.7291 29.1666H41.2708C33.6875 29.1666 29.1666 33.6875 29.1666 41.2708V58.7083C29.1666 66.3125 33.6875 70.8333 41.2708 70.8333H58.7083C66.2916 70.8333 70.8125 66.3125 70.8125 58.7291V41.2708C70.8333 33.6875 66.3125 29.1666 58.7291 29.1666Z" fill="#127682"/>
<path d="M57.2917 46.1042C59.4548 46.1042 61.2083 44.3507 61.2083 42.1875C61.2083 40.0244 59.4548 38.2709 57.2917 38.2709C55.1286 38.2709 53.375 40.0244 53.375 42.1875C53.375 44.3507 55.1286 46.1042 57.2917 46.1042Z" fill="#127682"/>
<path d="M42.7083 46.1042C44.8714 46.1042 46.625 44.3507 46.625 42.1875C46.625 40.0244 44.8714 38.2709 42.7083 38.2709C40.5452 38.2709 38.7916 40.0244 38.7916 42.1875C38.7916 44.3507 40.5452 46.1042 42.7083 46.1042Z" fill="#127682"/>
<path d="M57.5 51.9166H42.5C41.0416 51.9166 39.8541 53.1041 39.8541 54.5833C39.8541 60.1875 44.4166 64.75 50.0208 64.75C55.625 64.75 60.1875 60.1875 60.1875 54.5833C60.1666 53.125 58.9583 51.9166 57.5 51.9166Z" fill="#127682"/>
</svg>
