<svg width="100" height="100" viewBox="0 0 100 100" fill="none" xmlns="http://www.w3.org/2000/svg">
<rect width="100" height="100" rx="20" fill="#EEF1F8"/>
<path opacity="0.4" d="M50.1803 70.8333C49.9223 70.8333 49.6643 70.774 49.4315 70.6535L41.9292 66.77C39.8004 65.6668 38.1351 64.4288 36.8347 62.9865C33.9886 59.8323 32.4051 55.7833 32.3799 51.5831L32.2918 37.7588C32.2813 36.1633 33.3111 34.7313 34.8506 34.1919L48.6261 29.3891C49.4441 29.097 50.3565 29.0929 51.1891 29.3748L65.0171 34.0142C66.5649 34.5311 67.6115 35.9529 67.6199 37.5464L67.708 51.3809C67.7352 55.5749 66.2063 59.6403 63.4042 62.8292C62.1185 64.2919 60.4679 65.5483 58.36 66.6719L50.9248 70.6433C50.6941 70.7679 50.4383 70.8312 50.1803 70.8333Z" fill="#F7AE28"/>
<path d="M48.5817 54.8352C48.179 54.8373 47.7763 54.6922 47.4659 54.394L43.4725 50.5533C42.8559 49.9568 42.8496 48.9885 43.4599 48.3879C44.0703 47.7852 45.0665 47.7791 45.6853 48.3736L48.5586 51.1356L55.5743 44.2183C56.1868 43.6157 57.183 43.6095 57.7997 44.204C58.4184 44.8005 58.4247 45.7709 57.8143 46.3695L49.6912 54.3797C49.385 54.682 48.9844 54.8332 48.5817 54.8352Z" fill="#F7AE28"/>
</svg>
