<svg width="100" height="100" viewBox="0 0 100 100" fill="none" xmlns="http://www.w3.org/2000/svg">
<rect width="100" height="100" rx="20" fill="#EEF1F8"/>
<path fill-rule="evenodd" clip-rule="evenodd" d="M41.1851 43.1538H58.8151C63.7264 43.1538 67.7084 47.048 67.7084 51.851V62.1361C67.7084 66.9391 63.7264 70.8333 58.8151 70.8333H41.1851C36.2737 70.8333 32.2917 66.9391 32.2917 62.1361V51.851C32.2917 47.048 36.2737 43.1538 41.1851 43.1538ZM49.9895 61.1031C51.0268 61.1031 51.8524 60.2956 51.8524 59.2812V54.6852C51.8524 53.6915 51.0268 52.8841 49.9895 52.8841C48.9734 52.8841 48.1477 53.6915 48.1477 54.6852V59.2812C48.1477 60.2956 48.9734 61.1031 49.9895 61.1031Z" fill="#7B61FF"/>
<path opacity="0.4" d="M61.5059 40.4082V43.4722C60.765 43.2652 59.9817 43.1616 59.1773 43.1616H57.8013V40.4082C57.8013 36.2055 54.3083 32.7896 50.0109 32.7896C45.7134 32.7896 42.2205 36.1848 42.1993 40.3668V43.1616H40.8444C40.0188 43.1616 39.2356 43.2652 38.4946 43.4929V40.4082C38.5158 34.1974 43.66 29.1666 49.9685 29.1666C56.3617 29.1666 61.5059 34.1974 61.5059 40.4082Z" fill="#7B61FF"/>
</svg>
