<svg width="100" height="100" viewBox="0 0 100 100" fill="none" xmlns="http://www.w3.org/2000/svg">
<rect width="100" height="100" rx="20" fill="#EEF1F8"/>
<path opacity="0.4" d="M70.8329 49.9998C70.8329 61.5082 61.5058 70.8332 49.9996 70.8332C38.4933 70.8332 29.1663 61.5082 29.1663 49.9998C29.1663 38.4957 38.4933 29.1665 49.9996 29.1665C61.5058 29.1665 70.8329 38.4957 70.8329 49.9998Z" fill="#388CBA"/>
<path d="M57.4448 57.9467C57.1719 57.9467 56.8969 57.8759 56.6448 57.728L48.4656 52.8488C47.9948 52.5655 47.7052 52.0551 47.7052 51.5051V40.9905C47.7052 40.128 48.4052 39.428 49.2677 39.428C50.1302 39.428 50.8302 40.128 50.8302 40.9905V50.6176L58.2469 55.0405C58.9864 55.4842 59.2302 56.4426 58.7885 57.1842C58.4948 57.6738 57.976 57.9467 57.4448 57.9467Z" fill="#388CBA"/>
</svg>
